<?xml version="1.0" standalone="no"?>
<!DOCTYPE svg PUBLIC "-//W3C//DTD SVG 20010904//EN"
 "http://www.w3.org/TR/2001/REC-SVG-20010904/DTD/svg10.dtd">
<svg version="1.0" xmlns="http://www.w3.org/2000/svg"
 width="1280.000000pt" height="735.000000pt" viewBox="0 0 1280.000000 735.000000"
 preserveAspectRatio="xMidYMid meet">
<metadata>
Created by potrace 1.16, written by Peter Selinger 2001-2019
</metadata>
<g transform="translate(0.000000,735.000000) scale(0.100000,-0.100000)"
fill="#000000" stroke="none">
<path d="M740 7344 c-88 -11 -211 -39 -270 -61 -36 -14 -90 -34 -120 -46 -156
-58 -269 -135 -316 -213 -43 -73 -42 -143 8 -354 6 -25 40 -97 77 -160 36 -63
72 -132 79 -154 8 -21 40 -77 71 -125 68 -100 141 -232 141 -252 0 -8 32 -61
71 -119 60 -89 68 -105 53 -110 -16 -6 -16 -7 3 -12 12 -3 30 -24 42 -49 12
-24 39 -69 61 -99 21 -30 58 -98 81 -150 24 -52 57 -115 75 -140 17 -25 48
-78 68 -118 22 -43 46 -77 59 -83 26 -12 57 -61 142 -224 32 -60 63 -117 70
-125 7 -8 32 -51 55 -95 23 -44 59 -102 80 -130 21 -27 52 -77 71 -110 18 -33
38 -67 45 -75 6 -8 29 -53 50 -100 20 -47 55 -111 76 -143 22 -32 84 -133 140
-225 336 -554 560 -801 873 -959 101 -50 360 -131 388 -120 8 3 19 1 25 -5 6
-6 56 -13 111 -16 76 -3 101 -8 101 -18 0 -8 -4 -14 -9 -14 -20 0 -130 -149
-193 -260 -102 -181 -113 -202 -135 -260 -34 -90 -46 -146 -38 -187 7 -38 29
-112 44 -148 32 -74 32 -81 15 -196 -28 -191 -8 -262 97 -344 62 -49 93 -91
104 -143 6 -31 8 -32 24 -18 10 9 22 12 30 7 10 -6 3 -12 -23 -22 -30 -11 -36
-18 -36 -42 0 -26 3 -29 25 -25 30 6 31 4 4 -23 -23 -23 -20 -58 11 -119 20
-39 43 -61 150 -142 123 -92 125 -95 189 -249 48 -116 80 -141 254 -195 45
-15 161 -66 259 -115 124 -63 187 -89 212 -89 20 0 79 12 132 27 92 26 98 27
202 15 157 -17 190 -4 242 98 48 95 73 110 215 130 138 19 176 43 324 204 46
50 91 91 100 92 9 0 27 -5 41 -11 14 -7 31 -10 39 -7 10 3 12 0 8 -12 -5 -13
-2 -15 21 -10 15 4 32 10 37 14 6 4 27 13 48 19 20 7 37 16 37 21 0 4 11 11
25 14 14 4 25 11 25 16 0 6 7 10 15 10 8 0 15 4 15 8 0 5 18 15 40 22 30 10
40 19 45 41 4 16 4 33 0 39 -4 6 5 7 24 4 26 -6 31 -3 37 21 5 19 10 23 17 16
23 -23 25 -9 5 39 -17 41 -23 48 -38 40 -10 -5 -20 -7 -22 -4 -3 2 -13 -7 -22
-22 -24 -36 -29 -25 -12 24 14 39 14 43 -3 52 -12 6 -17 17 -14 32 3 18 11 23
33 22 16 0 35 -6 43 -13 12 -9 17 -3 28 36 11 42 13 45 17 21 3 -22 9 -28 28
-28 21 0 24 4 24 39 0 30 4 40 20 44 25 6 25 -1 3 -26 -17 -18 -17 -20 12 -43
23 -18 27 -26 17 -36 -6 -6 -12 -22 -12 -35 0 -19 5 -23 31 -23 26 0 29 3 24
20 -4 12 -1 28 6 36 10 12 8 19 -10 37 -21 24 -30 64 -10 52 5 -4 19 1 29 10
18 16 19 16 17 -3 0 -11 -5 -18 -11 -15 -5 3 -6 1 -3 -5 5 -6 0 -8 -13 -5 -11
3 -20 1 -20 -5 0 -14 28 -23 35 -12 4 6 12 10 19 10 11 0 15 -38 19 -167 3
-93 11 -226 17 -298 7 -71 13 -138 13 -147 1 -10 8 -18 15 -18 11 0 12 -3 3
-13 -18 -22 31 -182 90 -293 69 -129 123 -201 172 -225 l39 -20 71 59 c57 47
72 64 70 84 -1 21 2 25 19 20 17 -4 19 -2 13 17 -5 17 -1 27 14 38 26 18 68
99 87 168 l14 50 -44 42 c-33 33 -46 40 -53 30 -18 -21 -44 -84 -42 -99 4 -30
-2 -49 -12 -42 -6 4 -8 20 -4 40 4 22 2 34 -5 34 -6 0 -9 -4 -5 -9 3 -5 1 -12
-4 -16 -12 -7 -32 28 -28 47 2 7 2 10 0 6 -10 -18 -23 -7 -13 11 15 29 12 77
-5 91 -13 10 -15 9 -15 -8 0 -11 4 -32 10 -47 8 -20 7 -27 -6 -32 -13 -5 -12
-9 6 -28 l21 -23 -25 -6 c-21 -5 -26 -13 -26 -36 0 -32 19 -80 32 -80 4 0 8 7
8 15 0 8 5 15 10 15 6 0 10 7 10 15 0 8 5 15 10 15 21 0 9 -49 -16 -69 -17
-13 -24 -26 -20 -37 5 -12 2 -15 -9 -10 -9 3 -35 2 -59 -4 -49 -11 -116 -3
-122 15 -3 6 0 25 6 41 l12 29 13 -25 c14 -25 14 -24 15 17 0 23 4 45 10 48 5
3 10 14 10 23 0 12 -3 13 -12 4 -9 -9 -14 -7 -24 6 -12 15 -13 13 -14 -15 0
-23 -5 -33 -15 -33 -17 0 -20 -16 -5 -25 11 -6 4 -23 -23 -60 -14 -18 -16 -16
-32 39 -14 47 -19 56 -27 43 -21 -38 -36 -10 -61 116 -11 56 -12 67 0 62 7 -3
19 -7 26 -10 16 -7 37 34 37 71 0 16 -5 24 -12 21 -7 -2 -12 -18 -11 -36 1
-38 -16 -37 -34 1 -14 29 -33 144 -32 203 l0 40 18 -22 c16 -19 20 -20 25 -7
4 9 13 13 24 10 9 -3 53 -10 96 -16 43 -5 85 -15 93 -21 10 -9 12 -9 8 3 -4 9
-39 20 -102 32 -106 18 -164 45 -184 84 -21 38 -16 512 5 528 12 8 12 19 4 58
-9 45 -6 67 9 52 4 -3 9 -34 11 -67 4 -58 5 -59 24 -42 21 18 20 75 -1 96 -6
6 -11 22 -11 34 0 21 -3 22 -20 13 -17 -9 -20 -8 -20 12 0 38 14 52 39 39 20
-11 21 -9 21 28 0 32 3 39 15 35 11 -5 15 1 15 25 0 23 -4 29 -15 25 -12 -5
-15 2 -15 32 0 22 -5 46 -10 54 -7 11 -10 2 -10 -32 0 -44 -2 -48 -24 -48 -20
0 -24 -6 -30 -46 -3 -26 -6 -60 -6 -77 0 -17 -3 -27 -7 -23 -9 9 -4 159 6 166
9 7 8 296 -1 305 -4 4 -3 15 2 25 5 10 5 43 -1 84 -7 52 -6 73 5 94 15 30 30
102 21 102 -3 0 -11 -12 -17 -27 l-11 -28 -7 25 c-11 34 -12 60 -2 59 18 -3
32 2 32 12 0 7 -10 9 -25 5 -22 -6 -25 -3 -25 22 0 16 -9 41 -21 56 -12 15
-16 26 -8 26 8 0 10 22 7 80 -3 43 -1 77 4 74 4 -3 8 -31 9 -62 0 -41 8 -73
29 -117 35 -73 37 -57 8 81 -21 105 -21 105 -1 125 20 20 20 20 50 -14 26 -29
31 -45 36 -108 4 -41 2 -94 -3 -119 -5 -25 -9 -67 -8 -95 0 -27 2 -39 4 -25 3
14 9 41 14 61 9 33 12 35 41 31 24 -4 31 0 36 16 5 20 6 20 32 5 14 -9 32 -23
39 -32 11 -13 12 -13 12 2 0 14 10 17 55 17 48 0 55 2 55 20 0 11 -4 20 -10
20 -5 0 -10 -3 -10 -7 0 -10 -140 -9 -162 1 -9 4 -26 3 -37 -4 -22 -11 -27 -4
-12 19 6 9 32 16 68 18 73 5 83 8 83 29 0 12 -7 15 -27 11 -39 -7 -75 12 -67
36 4 11 1 23 -7 28 -24 15 -28 10 -19 -20 6 -21 5 -31 -4 -34 -9 -4 -11 2 -8
19 3 15 -2 32 -13 44 -16 18 -15 18 32 6 43 -11 49 -16 55 -47 l6 -34 0 35 c0
51 0 52 23 40 17 -10 18 -14 7 -27 -12 -15 -11 -15 9 -3 14 9 26 11 35 4 8 -5
6 -2 -4 8 -10 9 -18 24 -18 34 0 16 1 16 20 -1 10 -9 26 -15 34 -12 11 4 13 1
9 -10 -5 -12 -2 -15 10 -10 16 6 16 4 1 -31 -9 -20 -18 -43 -21 -49 -3 -8 3
-13 16 -13 14 0 25 9 31 25 13 34 21 31 13 -5 -5 -29 -5 -30 26 -24 21 5 39 1
58 -12 16 -10 37 -23 48 -29 11 -6 20 -17 21 -25 1 -9 -1 -10 -3 -3 -3 7 -13
13 -22 13 -19 0 -31 -40 -31 -109 0 -19 -3 -31 -6 -28 -10 10 -44 -12 -44 -29
0 -9 12 -36 27 -62 22 -39 23 -44 7 -29 -12 9 -23 14 -27 11 -3 -3 -3 3 -1 14
3 10 -2 26 -11 35 -21 22 -48 11 -41 -17 3 -11 8 -40 12 -63 4 -27 12 -43 20
-43 17 0 17 -4 -1 -50 -7 -19 -14 -28 -14 -19 -1 9 -12 21 -25 27 -19 8 -26
21 -29 49 l-4 38 -1 -42 c-2 -34 2 -43 18 -48 11 -3 20 -12 20 -19 0 -9 -16
-13 -52 -13 -89 0 -171 -11 -210 -27 -37 -16 -38 -16 -38 6 0 27 -5 21 -14
-14 -6 -25 -4 -27 16 -19 39 14 252 33 276 24 l23 -9 -20 -25 c-15 -20 -18
-35 -14 -67 4 -33 2 -43 -11 -48 -12 -4 -13 -10 -6 -24 6 -10 10 -48 10 -84 0
-37 4 -66 10 -66 6 0 10 33 11 78 2 135 17 138 18 3 1 -123 1 -124 -19 -106
-19 18 -20 17 -20 -3 0 -11 10 -28 22 -36 22 -16 21 -16 -20 -16 -40 0 -54
-11 -32 -25 6 -4 44 -7 85 -7 58 0 75 -3 75 -14 0 -8 -6 -17 -14 -20 -21 -8
-29 -90 -11 -124 17 -32 20 -91 6 -105 -5 -6 -11 -21 -13 -34 -4 -32 -25 -38
-30 -9 -3 19 -6 16 -17 -18 -11 -35 -17 -40 -37 -36 -17 3 -24 0 -24 -11 0
-22 23 -27 131 -28 l99 0 0 -99 c0 -56 4 -100 10 -102 6 -2 5 -13 -3 -28 -8
-14 -16 -36 -19 -48 -5 -18 -2 -22 19 -22 l24 0 -21 -27 -21 -27 26 -13 c27
-15 34 -50 13 -71 -17 -17 -26 -15 -31 6 -3 10 -5 6 -6 -11 -1 -24 1 -26 18
-18 20 11 31 5 31 -17 0 -12 -3 -12 -15 -2 -8 6 -19 9 -25 5 -16 -10 -12 -45
5 -45 14 0 14 -3 0 -30 -14 -27 -14 -32 4 -66 19 -34 19 -64 1 -64 -14 0 -24
21 -31 65 l-7 40 1 -45 c2 -40 6 -47 42 -71 l40 -28 7 27 c14 57 38 280 38
355 0 74 -15 108 -22 47 -2 -23 -6 -27 -17 -20 -12 7 -12 11 -2 23 21 26 32
79 41 207 6 69 11 133 12 143 3 19 13 22 23 7 5 -8 11 -7 21 1 20 17 17 2 -7
-32 -16 -23 -17 -29 -6 -29 12 0 15 -12 14 -51 -2 -44 2 -54 25 -72 l27 -22
-20 -24 c-23 -29 -17 -41 9 -18 25 23 31 21 25 -6 -5 -21 -4 -21 21 6 35 35
40 34 32 -7 -4 -21 -2 -37 5 -41 19 -12 31 10 20 38 -11 28 -3 35 16 16 8 -8
14 -5 23 11 10 18 9 24 -1 31 -12 8 -11 11 1 18 53 33 54 35 37 78 -21 53 -6
77 18 27 13 -27 16 -49 11 -84 -7 -50 -1 -80 16 -80 6 0 7 13 2 32 -6 29 -5
31 9 20 8 -7 20 -27 26 -44 10 -28 9 -30 -9 -25 -15 4 -20 0 -20 -14 0 -24 29
-37 40 -19 6 9 11 7 19 -9 13 -24 31 -28 31 -6 0 8 4 15 9 15 10 0 6 -22 -16
-92 -8 -26 -13 -56 -11 -65 3 -11 12 6 23 40 17 52 35 75 35 45 0 -7 3 -23 6
-35 5 -19 2 -23 -15 -23 -19 0 -20 -2 -8 -27 15 -35 29 -45 40 -30 5 7 6 4 3
-9 -7 -25 26 -60 46 -48 7 4 10 4 6 -1 -10 -11 10 -35 30 -35 13 0 13 2 -1 18
-21 23 -22 43 -3 36 8 -3 16 0 19 8 2 7 3 5 2 -4 -2 -10 1 -18 6 -18 5 0 15
-15 23 -32 11 -27 15 -30 21 -16 6 16 10 15 28 -9 l21 -27 6 23 c5 22 7 20 26
-15 20 -38 21 -39 70 -36 47 3 54 1 102 -41 29 -24 78 -56 110 -72 57 -28 193
-75 217 -75 26 0 114 -92 140 -146 39 -82 63 -91 209 -74 140 16 188 10 282
-35 40 -19 81 -35 91 -35 11 0 46 19 78 43 107 77 178 117 245 137 36 10 103
31 150 45 144 43 161 59 209 193 39 106 97 183 186 244 97 66 149 119 163 164
6 22 18 83 27 137 9 53 20 110 26 125 5 15 48 63 94 107 73 70 86 88 101 138
17 56 17 65 2 190 l-17 131 26 66 c14 36 32 80 40 98 19 39 20 116 3 168 -19
60 -111 259 -121 262 -5 2 -9 18 -9 36 0 26 -11 44 -47 83 -27 27 -66 75 -88
107 -32 46 -44 57 -62 53 -19 -3 -21 -1 -13 14 8 14 3 24 -20 48 -17 16 -30
33 -30 38 0 5 42 15 93 22 438 58 521 88 783 283 87 64 346 326 405 408 68 96
101 161 94 188 -6 24 -5 25 7 9 12 -16 19 -10 70 70 31 48 85 142 120 208 36
66 76 138 90 160 14 22 53 95 88 163 34 68 90 160 123 205 33 45 83 118 110
162 27 44 61 95 76 115 15 19 49 78 75 130 27 52 63 115 82 140 48 64 75 105
122 185 23 39 64 99 92 133 28 35 60 87 71 116 11 30 42 91 70 137 28 46 74
128 102 183 29 54 67 116 85 137 19 22 55 83 82 137 26 53 72 131 102 172 30
42 58 90 61 108 11 53 54 155 108 251 32 58 50 101 48 118 -1 16 1 35 3 43 28
77 36 170 21 241 -9 46 -99 135 -184 182 -66 37 -196 86 -279 105 -112 26
-140 32 -220 44 -55 8 -177 13 -350 12 -233 -1 -275 -4 -350 -22 -47 -12 -119
-28 -160 -37 -41 -8 -124 -29 -185 -45 -60 -17 -141 -39 -180 -50 -41 -11 -71
-15 -73 -10 -6 18 -22 10 -22 -10 0 -11 -3 -19 -7 -18 -16 4 -257 -83 -313
-113 -19 -11 -39 -19 -45 -19 -5 0 -50 -20 -100 -44 -49 -25 -133 -65 -185
-90 -52 -25 -133 -68 -179 -96 -46 -27 -85 -50 -87 -50 -6 0 -216 -128 -279
-170 -38 -26 -85 -53 -102 -61 -18 -8 -33 -17 -33 -20 0 -4 -42 -33 -92 -64
-77 -48 -348 -227 -432 -285 -12 -8 -48 -35 -80 -60 -32 -25 -73 -56 -91 -70
-64 -49 -211 -165 -259 -205 -286 -236 -831 -774 -1041 -1030 -28 -33 -52 -62
-55 -65 -42 -42 -239 -312 -322 -440 -93 -146 -203 -360 -284 -552 -27 -65
-52 -118 -55 -118 -9 0 -19 39 -19 80 0 20 -15 65 -35 105 -20 39 -38 90 -42
115 -3 25 -14 59 -24 77 -15 27 -15 31 -2 26 12 -5 14 -1 8 15 -3 13 -2 22 4
22 24 0 54 62 52 111 -1 58 -19 97 -61 133 -38 32 -47 32 -70 4 -41 -49 1 55
48 122 112 156 249 301 442 465 52 44 131 114 175 155 45 41 139 127 211 190
176 157 450 417 560 532 139 146 401 466 465 568 24 39 40 90 28 90 -32 0 -78
-51 -266 -290 -47 -61 -144 -179 -227 -280 -119 -143 -521 -535 -811 -790 -22
-19 -74 -67 -115 -106 -41 -38 -102 -95 -135 -125 -166 -151 -395 -422 -395
-467 0 -21 -28 -13 -49 14 -19 24 -23 25 -56 14 -19 -6 -35 -18 -35 -26 0 -20
-14 -18 -34 5 -19 20 -48 20 -72 0 -8 -7 -16 -10 -17 -8 -124 189 -188 269
-337 419 -100 101 -361 334 -570 510 -98 82 -450 432 -544 540 -45 52 -131
160 -191 240 -101 134 -272 320 -296 320 -42 0 8 -100 101 -204 31 -34 69 -79
85 -101 144 -193 631 -677 885 -880 41 -32 95 -77 120 -100 25 -22 91 -78 145
-125 134 -113 344 -319 415 -405 58 -71 160 -216 160 -228 0 -4 -11 -7 -24 -7
-35 0 -57 -10 -49 -23 3 -5 1 -7 -4 -4 -21 13 -62 -34 -79 -88 -16 -51 -16
-56 0 -99 10 -25 29 -55 43 -66 23 -18 25 -25 20 -70 -3 -28 -13 -63 -21 -78
-40 -72 -86 -206 -99 -282 -4 -22 -4 -22 -6 5 -3 78 -151 410 -256 576 -66
106 -290 413 -374 515 -131 157 -534 584 -553 584 -15 0 -8 -33 9 -46 10 -7
13 -14 6 -14 -19 0 -45 42 -33 54 6 6 10 13 10 18 0 4 -37 40 -83 80 -46 40
-136 121 -201 181 -105 95 -159 142 -296 252 -21 17 -70 57 -111 90 -40 33
-88 71 -106 85 -165 127 -237 181 -288 217 -93 65 -300 204 -403 269 -51 32
-115 73 -143 91 -113 73 -258 163 -263 163 -3 0 -31 15 -63 34 -199 115 -382
208 -398 202 -8 -3 -15 -1 -15 4 0 13 -56 40 -181 91 -57 22 -124 50 -148 61
-58 26 -269 96 -323 107 -24 5 -97 23 -163 39 -109 28 -164 38 -395 72 -77 11
-458 22 -520 14z m360 -263 c58 -12 134 -22 170 -23 36 -2 67 -6 70 -9 3 -3
77 -20 165 -38 88 -18 213 -46 277 -64 115 -31 117 -32 111 -57 l-6 -25 19 22
19 22 115 -38 c294 -98 621 -253 878 -418 164 -105 429 -317 614 -492 38 -35
68 -59 68 -54 0 22 -342 335 -513 471 -43 34 -76 62 -73 62 60 0 732 -467 751
-522 4 -10 13 -18 22 -18 8 0 92 -69 187 -154 176 -158 266 -246 253 -246 -5
0 -108 50 -230 112 -219 110 -223 113 -306 197 -86 89 -91 85 -9 -7 50 -56 60
-77 31 -68 -10 3 -76 21 -146 41 -152 41 -328 122 -418 192 -56 43 -232 167
-266 187 -7 4 -13 3 -13 -2 0 -5 58 -48 129 -96 133 -89 165 -116 140 -116 -8
0 -41 7 -74 14 -33 8 -114 24 -180 35 -150 27 -220 50 -315 104 -42 23 -114
59 -160 81 -47 21 -107 49 -135 62 -27 13 -83 37 -124 54 -41 17 -90 42 -108
56 -24 18 -41 24 -58 20 -17 -4 -30 1 -47 19 -12 14 -33 25 -45 25 -13 0 -64
18 -115 41 -110 49 -263 108 -298 116 -14 3 -27 9 -30 12 -7 9 -253 84 -312
96 -16 3 -28 9 -28 14 0 5 8 7 18 4 9 -2 36 0 60 5 34 8 42 7 42 -4 0 -18 10
-17 34 1 20 15 41 14 226 -11 131 -17 397 -84 510 -129 47 -18 132 -50 190
-70 58 -20 148 -58 200 -84 87 -44 95 -51 92 -75 -3 -29 9 -34 28 -11 18 22
28 19 100 -23 135 -78 245 -134 228 -115 -10 10 -52 38 -95 62 -132 72 -157
89 -165 110 -5 16 -16 21 -41 21 -21 0 -81 22 -151 55 -386 184 -900 319
-1197 314 -72 -1 -114 3 -123 11 -11 8 -20 8 -35 1 -11 -6 -22 -7 -25 -2 -3 4
-36 11 -73 14 -38 3 -104 13 -148 22 -44 8 -102 20 -130 25 -110 21 -149 30
-153 35 -3 3 3 14 12 24 17 19 16 19 -76 19 -135 -1 -208 16 -249 58 l-33 34
27 0 c15 0 27 6 27 13 0 9 3 8 9 -2 7 -11 15 -9 42 12 47 35 190 73 384 101
75 11 354 -3 455 -23z m11236 9 c98 -19 259 -59 242 -59 -29 -1 -20 -19 13
-26 24 -5 29 -11 27 -28 -2 -16 -10 -22 -25 -21 -17 0 -23 -5 -23 -21 0 -13
-7 -28 -15 -35 -12 -10 -15 -9 -15 4 0 19 -21 16 -72 -10 -43 -22 -99 -17
-286 26 -97 23 -204 42 -239 42 -35 1 -66 5 -69 10 -3 5 -12 1 -19 -8 -11 -16
-15 -16 -36 -3 -19 12 -49 13 -154 8 -140 -6 -395 -46 -395 -62 0 -6 18 -7 43
-3 117 19 219 28 397 35 195 8 254 4 400 -26 127 -26 149 -33 177 -59 l28 -26
-33 6 c-28 5 -35 2 -39 -14 -4 -16 -8 -18 -19 -9 -9 8 -18 8 -26 2 -45 -35
-200 -60 -428 -68 -212 -7 -240 -11 -240 -32 0 -11 8 -14 29 -11 22 3 31 0 34
-13 8 -30 -9 -44 -52 -40 -33 2 -40 0 -35 -13 4 -11 0 -13 -15 -9 -12 3 -28 0
-36 -7 -8 -7 -22 -9 -31 -6 -11 4 -15 2 -11 -8 4 -10 -9 -15 -51 -19 -31 -3
-58 -11 -60 -17 -2 -5 -10 -10 -17 -10 -8 0 -30 -10 -50 -22 -31 -18 -38 -19
-46 -7 -8 12 -11 11 -20 -4 -14 -24 -132 -77 -169 -77 -16 0 -30 -5 -32 -12
-2 -6 -13 -12 -24 -13 -29 -2 -266 -120 -302 -150 -17 -14 -36 -23 -44 -20 -7
3 -78 -29 -158 -71 -195 -103 -386 -177 -529 -204 -62 -11 -142 -32 -177 -45
-52 -20 -65 -21 -74 -10 -20 24 419 313 660 434 370 187 648 272 1064 326 123
16 144 22 129 35 -9 9 -314 -30 -438 -55 -44 -9 -168 -46 -275 -81 -310 -103
-617 -262 -1010 -524 -149 -99 -175 -121 -178 -144 -3 -28 -3 -28 40 -21 24 4
57 13 73 20 43 19 87 25 107 14 13 -7 16 -6 13 3 -4 9 4 13 22 14 16 1 37 5
48 8 18 6 20 3 20 -33 -1 -45 -10 -60 -27 -43 -8 8 -15 9 -25 1 -18 -16 -16
-29 4 -29 14 0 14 -2 -2 -20 -20 -22 -45 -26 -63 -8 -8 8 -15 8 -27 -2 -10 -8
-15 -9 -15 -1 0 6 -4 11 -10 11 -5 0 -7 -6 -4 -14 9 -25 -26 -48 -68 -44 -32
3 -37 1 -33 -13 6 -18 -33 -49 -62 -49 -10 0 -27 -7 -37 -15 -17 -13 -25 -11
-75 15 -31 16 -73 32 -93 36 -21 3 -38 10 -38 14 0 19 156 95 205 100 57 6 67
23 16 28 -51 5 -178 -52 -222 -99 -39 -42 -59 -48 -79 -24 -7 8 -17 15 -23 15
-16 0 -97 -43 -97 -52 0 -10 7 -10 52 2 28 8 60 7 129 -5 94 -16 120 -26 151
-53 16 -14 16 -16 -8 -34 -20 -17 -27 -18 -40 -7 -13 10 -17 10 -24 -1 -4 -7
-15 -10 -24 -7 -12 5 -21 -3 -33 -27 -11 -25 -20 -32 -34 -29 -11 3 -19 0 -19
-6 0 -6 -7 -11 -15 -11 -8 0 -15 -5 -15 -11 0 -6 -9 -8 -20 -4 -15 5 -20 2
-20 -10 0 -11 -5 -15 -14 -12 -8 3 -22 -3 -31 -13 -23 -25 -63 -34 -83 -18
-13 11 -15 10 -10 -9 5 -17 2 -23 -11 -23 -10 0 -26 -9 -36 -20 -9 -10 -34
-25 -54 -31 -20 -6 -40 -15 -46 -19 -5 -4 -28 -13 -50 -20 -22 -7 -46 -22 -54
-33 -7 -10 -41 -31 -75 -46 -33 -16 -67 -35 -75 -44 -7 -10 -22 -17 -33 -17
-11 0 -36 -13 -55 -30 -18 -16 -40 -30 -48 -30 -8 0 -15 -6 -15 -12 0 -7 -25
-26 -55 -42 -128 -67 -536 -375 -730 -552 -49 -45 -160 -156 -245 -248 -85
-91 -160 -164 -167 -162 -7 3 -11 -4 -10 -17 1 -15 -15 -38 -55 -74 -31 -28
-54 -54 -51 -56 10 -10 -21 -46 -32 -37 -7 6 -33 -24 -77 -91 -37 -55 -69
-105 -71 -112 -3 -9 -8 -9 -16 -1 -16 15 11 82 82 205 80 139 83 144 197 302
67 95 107 142 112 134 6 -9 8 -8 8 3 0 54 384 501 577 672 76 68 342 263 388
285 34 16 63 63 39 63 -8 0 -14 -9 -14 -20 0 -15 -7 -20 -25 -20 -16 0 -52
-22 -98 -59 -39 -32 -98 -75 -129 -94 l-57 -36 18 29 c10 16 35 43 57 58 21
16 91 78 154 137 244 228 531 475 709 609 53 40 144 109 203 154 122 92 288
205 293 200 8 -8 -17 -29 -210 -183 -110 -88 -222 -180 -250 -206 -27 -25 -95
-83 -150 -128 -157 -129 -498 -447 -430 -401 11 8 27 22 35 31 8 9 51 47 95
85 189 162 205 173 205 135 0 -14 8 -21 28 -23 41 -5 33 -20 -28 -51 -49 -24
-97 -53 -255 -149 -25 -15 -45 -32 -45 -38 0 -6 3 -9 8 -7 4 2 84 49 177 104
159 93 236 128 345 155 l45 12 -34 6 -35 5 200 192 c354 340 434 403 854 668
125 79 290 156 525 245 193 72 478 144 830 210 233 44 752 74 871 50z m-9141
-684 c50 -33 126 -83 170 -111 98 -62 312 -223 360 -270 34 -35 55 -44 55 -25
0 6 5 10 10 10 6 0 10 -10 10 -23 0 -17 14 -32 50 -56 27 -18 90 -64 139 -104
49 -40 127 -102 173 -138 177 -140 598 -540 598 -569 0 -15 -43 16 -185 134
-66 55 -147 117 -180 138 -33 22 -130 107 -216 191 -263 255 -573 520 -758
647 -320 220 -406 283 -341 250 14 -7 66 -40 115 -74z m6567 -20 c-2 -5 -9 -1
-14 8 -13 24 -25 20 -33 -11 -4 -17 -10 -22 -12 -15 -3 8 -13 -3 -23 -26 -21
-47 -40 -62 -40 -33 l0 21 -20 -20 c-11 -11 -26 -20 -32 -21 -7 0 -5 -4 6 -8
16 -6 11 -13 -35 -51 -30 -24 -127 -115 -216 -203 -110 -109 -166 -158 -176
-154 -11 4 -17 -2 -22 -21 -8 -37 -102 -142 -126 -142 -11 0 -37 -9 -57 -19
l-38 -19 -35 46 -34 47 124 100 c69 55 127 100 130 100 3 0 7 -10 9 -23 3 -22
4 -23 17 -5 9 13 10 22 3 30 -7 9 -7 17 2 27 16 20 314 248 430 329 52 36 109
77 125 91 l30 25 21 -22 c12 -12 19 -26 16 -31z m-5865 -425 c153 -115 294
-225 312 -245 19 -20 39 -36 43 -36 4 0 8 17 8 38 l1 37 17 -31 c9 -17 23 -29
30 -27 6 3 12 0 12 -5 0 -6 -9 -14 -20 -17 -29 -9 -25 -28 10 -49 37 -21 144
-113 149 -128 2 -5 -6 -8 -17 -6 -19 3 -90 62 -282 231 -87 78 -377 306 -501
395 -47 34 -103 78 -125 97 l-39 36 62 -41 c35 -22 188 -135 340 -249z m5286
196 c-4 -9 -56 -52 -115 -97 -59 -45 -136 -107 -171 -138 -35 -31 -119 -105
-188 -163 -68 -59 -211 -188 -318 -288 -107 -99 -207 -186 -223 -193 -15 -7
-32 -25 -37 -40 -5 -14 -102 -120 -216 -235 -237 -238 -469 -503 -575 -654
-40 -57 -92 -127 -116 -155 -23 -28 -69 -93 -101 -145 -65 -104 -123 -186
-123 -175 0 8 34 66 112 194 21 34 36 67 33 72 -3 6 0 10 7 10 7 0 45 49 83
107 79 122 275 390 344 473 177 212 490 531 837 852 123 114 414 341 689 539
79 57 95 64 78 36z m-8413 -238 c0 -17 -107 -79 -136 -79 -7 0 -20 20 -30 45
-20 55 -17 60 58 86 l53 18 28 -27 c15 -14 27 -34 27 -43z m11413 35 c28 -19
37 -30 32 -42 -4 -10 -9 -24 -12 -33 -6 -21 -45 -39 -84 -39 -43 0 -82 41 -73
77 14 64 74 80 137 37z m-9287 1 c-4 -12 0 -14 19 -9 57 14 247 -40 428 -121
122 -55 123 -54 -2 -96 -93 -32 -173 -23 -249 26 -31 20 -69 41 -84 48 -16 6
-27 18 -25 27 1 10 -11 18 -40 24 -31 7 -43 15 -43 28 0 11 -5 15 -15 12 -10
-4 -15 0 -15 11 0 12 -5 15 -20 10 -38 -12 -10 33 30 48 23 8 23 8 16 -8z
m760 -236 c130 -33 185 -55 344 -138 195 -101 399 -231 633 -403 98 -72 325
-292 440 -427 40 -46 101 -116 137 -156 84 -93 196 -231 240 -299 19 -29 51
-73 71 -97 67 -81 151 -213 199 -309 75 -153 74 -175 -5 -88 -38 42 -46 58
-42 81 3 23 1 28 -14 24 -11 -3 -34 9 -60 31 -37 32 -39 37 -23 43 18 7 18 8
-2 14 -12 4 -32 24 -45 46 -13 21 -30 37 -36 34 -7 -2 -13 0 -13 6 0 5 -75 88
-167 184 -171 178 -352 345 -465 431 -35 26 -83 66 -109 89 -25 23 -64 54 -86
70 l-42 27 27 24 27 25 -33 -16 c-38 -18 -27 -23 -156 75 -56 42 -150 108
-211 145 -60 37 -134 84 -164 104 -67 45 -69 46 -106 61 -35 15 -46 20 -147
77 -43 24 -80 48 -83 53 -3 5 -12 7 -20 3 -8 -3 -15 -1 -15 4 0 5 -16 15 -36
22 -19 7 -51 26 -69 43 -19 16 -39 27 -44 24 -5 -3 -11 1 -15 9 -3 9 -18 15
-34 15 -18 0 -40 11 -58 27 -16 15 -35 26 -42 25 -8 -2 -22 4 -33 14 -10 9
-35 18 -55 19 -20 1 -39 6 -42 12 -4 5 -16 13 -26 17 -19 7 -19 7 1 21 11 8
38 15 59 16 21 1 49 8 60 15 27 16 81 32 115 33 14 1 79 -13 145 -30z m-2691
-41 c30 -14 32 -41 5 -85 -22 -37 -49 -57 -108 -77 -41 -15 -42 -14 -42 6 0
13 -5 18 -14 15 -17 -7 -43 21 -46 48 -6 59 0 73 38 88 44 19 131 22 167 5z
m11005 3 c54 -11 80 -40 80 -90 0 -42 -26 -85 -46 -77 -9 3 -14 -1 -14 -14 0
-29 -44 -14 -139 49 -11 7 -12 19 0 75 12 64 13 66 43 66 17 -1 51 -5 76 -9z
m-10894 -190 c28 -17 54 -71 54 -113 0 -17 -113 -128 -130 -128 -48 0 -118 78
-140 156 -13 47 -13 47 15 70 47 37 152 45 201 15z m10827 -19 c43 -19 47 -24
47 -55 0 -41 -66 -156 -102 -176 -32 -19 -69 -9 -113 31 -52 45 -65 76 -57
134 6 40 13 52 42 72 43 29 109 27 183 -6z m-7232 -167 c216 -202 420 -422
594 -645 71 -91 148 -187 170 -215 49 -59 151 -203 182 -257 34 -59 1 -48 -45
15 -22 29 -61 77 -89 107 -27 30 -104 123 -170 205 -67 83 -163 198 -215 256
-234 266 -431 482 -525 578 -57 57 -103 109 -103 115 0 17 14 30 18 17 2 -5
84 -85 183 -176z m-3411 -134 c19 -5 47 -12 61 -15 29 -6 44 -34 54 -98 l7
-44 -62 -41 c-78 -53 -114 -62 -149 -36 -45 34 -93 110 -98 157 -5 41 -4 43
28 58 67 31 99 34 159 19z m10415 -2 c44 -12 65 -32 65 -63 0 -26 -57 -136
-94 -183 -25 -30 -31 -33 -64 -27 -43 7 -104 46 -127 80 -19 29 -19 34 -1 34
8 0 24 8 37 19 21 17 22 20 9 50 -12 29 -17 32 -42 27 -15 -3 -28 -4 -28 -2 0
6 96 64 115 69 36 9 89 7 130 -4z m-10185 -251 c20 -12 30 -23 22 -25 -8 -3
-2 -15 18 -33 37 -35 37 -52 1 -115 -31 -53 -76 -98 -117 -117 -24 -11 -29 -8
-75 43 -27 30 -65 84 -84 120 -35 66 -35 67 -16 90 44 54 189 76 251 37z
m10017 -28 c61 -28 63 -30 57 -62 -14 -72 -122 -228 -158 -228 -6 0 -35 11
-63 25 -72 33 -93 69 -90 156 3 74 12 91 66 119 53 28 115 25 188 -10z m-9828
-316 c29 -8 61 -25 72 -37 11 -12 27 -29 35 -38 9 -10 15 -41 17 -84 l2 -67
-88 -39 -89 -39 -29 21 c-34 24 -108 124 -140 192 -22 45 -22 48 -6 65 42 41
137 53 226 26z m9615 1 c11 -8 29 -15 39 -15 17 0 19 -6 15 -54 -4 -46 -14
-68 -69 -150 -57 -86 -67 -96 -95 -96 -46 0 -149 38 -174 65 -22 24 -23 28
-11 77 13 59 65 129 114 155 62 32 151 41 181 18z m-9349 -289 c66 -17 113
-42 153 -80 47 -43 62 -77 62 -136 0 -46 2 -50 23 -50 29 0 127 -116 127 -150
0 -41 -23 -100 -49 -127 -29 -29 -188 -107 -238 -116 -29 -6 -33 -4 -33 16 0
14 -12 32 -30 45 -40 30 -90 130 -90 182 0 37 -4 42 -45 68 -71 44 -169 192
-189 284 -6 25 -3 27 67 51 82 29 167 34 242 13z m9139 -34 c75 -35 79 -47 47
-119 -29 -62 -116 -188 -150 -214 -16 -14 -38 -47 -49 -75 -25 -67 -106 -188
-150 -224 l-34 -28 -53 33 c-30 18 -68 38 -85 45 -19 8 -29 18 -26 26 4 10 -4
14 -28 14 -26 0 -41 8 -65 35 -28 32 -30 40 -25 78 10 65 51 135 115 200 33
32 57 63 53 68 -3 5 0 9 5 9 6 0 11 11 11 24 0 29 108 133 148 142 15 3 41 10
57 15 58 17 158 4 229 -29z m-6657 -122 c43 -17 96 -33 118 -37 22 -3 45 -12
50 -19 6 -6 136 -53 290 -104 154 -50 321 -107 372 -126 50 -18 99 -31 107
-28 10 4 16 1 16 -7 0 -8 59 -43 131 -78 166 -82 259 -144 334 -222 l60 -63
-75 68 c-157 141 -456 282 -901 425 -52 17 -104 31 -114 31 -10 0 -26 6 -34
14 -9 7 -65 29 -126 49 -121 40 -337 126 -318 127 6 0 47 -14 90 -30z m3583
-149 c0 -5 -17 -15 -37 -22 -21 -6 -63 -24 -94 -40 -31 -15 -97 -41 -146 -57
-49 -17 -116 -43 -149 -60 -32 -16 -77 -35 -99 -42 -118 -38 -143 -50 -138
-70 3 -13 14 -20 28 -20 17 0 26 -8 33 -30 14 -40 -2 -48 -19 -8 l-13 31 -18
-23 -18 -22 0 35 c0 20 -4 38 -9 41 -13 8 -233 -104 -311 -158 -35 -25 -66
-43 -68 -41 -11 10 25 47 82 84 68 44 293 147 346 157 31 7 38 22 19 41 -7 7
-6 12 5 16 10 4 16 1 16 -8 0 -27 19 -24 116 16 55 23 146 58 204 79 58 21
141 54 185 74 92 41 85 39 85 27z m652 -127 c82 -5 132 -23 115 -40 -4 -4 -13
0 -20 10 -12 17 -15 15 -41 -18 -15 -20 -24 -41 -21 -46 8 -13 -4 -13 -44 1
-39 14 -45 10 -31 -26 7 -20 7 -31 -1 -41 -12 -15 -7 -18 24 -14 13 1 18 -4
15 -17 -2 -11 -11 -17 -24 -16 -14 2 -25 -7 -34 -25 l-13 -27 -9 27 c-9 27
-33 42 -49 32 -5 -3 -6 -11 -3 -17 4 -7 -5 -1 -19 12 -37 34 -34 41 11 25 47
-17 72 -17 72 -1 0 6 3 23 6 37 l6 25 -21 -23 c-12 -14 -25 -20 -32 -16 -9 5
-7 11 5 20 17 12 16 13 -3 24 -18 9 -21 8 -21 -10 0 -33 -21 -19 -51 32 -44
75 -45 86 -7 97 18 5 49 7 68 5 19 -2 74 -6 122 -10z m-5992 -115 c100 -27
246 -77 295 -102 72 -35 94 -56 105 -99 11 -38 10 -42 -17 -70 -36 -39 -160
-111 -174 -102 -7 4 -9 22 -6 45 3 22 1 39 -4 39 -4 0 -11 -22 -15 -49 -3 -27
-9 -53 -13 -58 -3 -5 -37 -28 -74 -51 -37 -22 -64 -43 -60 -45 5 -3 30 7 55
23 91 57 336 180 387 196 114 33 281 -15 281 -81 0 -28 2 -29 85 -15 62 10
118 5 272 -26 74 -15 85 -16 100 -2 25 22 46 13 32 -14 -9 -16 -7 -20 10 -25
12 -3 21 -9 21 -13 0 -10 -72 -85 -95 -98 -14 -8 -17 -14 -9 -22 8 -8 24 -5
59 10 26 11 79 26 117 32 57 10 68 15 69 33 1 17 2 18 6 2 3 -13 10 -16 21
-11 39 16 168 16 231 0 34 -9 74 -16 88 -16 22 0 24 -2 12 -16 -12 -15 -11
-16 7 -10 11 3 49 7 85 8 35 0 69 5 76 10 7 6 19 5 32 -1 11 -6 29 -11 40 -11
25 0 101 -39 101 -51 0 -5 10 -4 22 2 18 10 24 8 40 -11 16 -20 24 -15 19 13
-2 14 14 7 27 -13 13 -21 52 -28 52 -9 0 6 6 9 14 6 9 -4 21 5 31 20 14 21 15
27 4 34 -8 5 -12 9 -9 10 3 0 14 2 25 3 11 2 38 15 59 29 21 15 45 27 52 27 7
0 18 2 26 5 13 5 38 -36 38 -62 0 -18 -27 -16 -34 2 -9 24 -36 18 -36 -8 0
-33 -10 -40 -32 -20 -22 19 -36 10 -18 -12 11 -13 9 -15 -14 -15 -23 0 -25 -3
-17 -19 8 -15 5 -23 -19 -44 -24 -22 -29 -23 -34 -10 -6 14 -10 13 -31 -7 -19
-18 -39 -24 -78 -26 -75 -3 -137 -15 -137 -25 0 -19 -31 -8 -40 14 -6 16 -9
18 -9 5 -1 -10 -11 -20 -23 -22 -273 -56 -391 -73 -638 -89 -247 -16 -309 -15
-320 3 -7 12 -12 12 -22 2 -15 -15 -43 -15 -68 0 -15 10 -24 10 -38 2 -14 -9
-22 -8 -37 2 -10 8 -32 14 -48 14 l-29 0 23 19 23 18 -49 -7 c-37 -6 -54 -4
-66 6 -19 17 -41 18 -56 3 -8 -8 -18 -6 -36 5 -13 9 -31 14 -40 11 -8 -4 -31
-2 -50 3 -19 5 -40 6 -47 2 -8 -5 -23 -2 -36 7 -13 8 -28 12 -34 8 -5 -3 -10
1 -10 9 0 9 18 25 40 36 22 11 40 24 40 29 0 5 -28 11 -62 14 -119 11 -172 25
-195 52 -28 32 -35 32 -27 -2 7 -28 7 -28 -14 -10 -20 18 -21 18 -36 -10 l-15
-28 -1 33 c0 17 -2 32 -4 32 -2 0 -28 -11 -58 -24 l-55 -25 -67 35 c-37 19
-77 34 -90 34 -29 0 -39 10 -25 26 7 9 2 14 -23 20 -18 4 -36 7 -40 6 -4 -1
-21 25 -39 58 l-32 60 -51 0 c-62 0 -124 28 -209 95 -74 58 -86 84 -64 130 14
29 22 35 64 41 26 4 60 17 75 29 26 22 124 63 198 84 63 17 190 13 270 -10z
m7765 -26 c73 -18 301 -129 309 -150 24 -63 -197 -236 -315 -247 -43 -5 -103
-50 -115 -88 -4 -14 -11 -17 -27 -12 -18 5 -20 4 -9 -7 20 -21 14 -29 -18 -23
-22 5 -31 2 -36 -9 -3 -9 -12 -13 -20 -10 -8 3 -21 -3 -29 -13 -14 -18 -14
-18 -15 4 0 17 -5 23 -17 20 -10 -2 -28 9 -42 24 -12 16 -66 54 -120 85 -157
93 -261 177 -261 209 0 34 161 164 203 164 14 0 17 5 12 19 -5 18 -3 19 27 10
29 -8 35 -6 50 13 10 13 18 18 18 11 0 -9 8 -9 28 -3 87 30 264 32 377 3z
m-3996 -83 c11 0 25 -10 32 -21 10 -20 9 -21 -16 -15 l-27 7 7 -48 c4 -26 8
-87 9 -135 1 -48 6 -92 11 -97 8 -8 10 9 7 55 -3 39 0 70 6 76 19 19 25 -38
19 -158 -4 -69 -3 -114 3 -114 18 0 23 -49 6 -65 -9 -9 -16 -25 -16 -36 0 -35
-18 -10 -29 40 -5 26 -19 70 -30 97 l-19 49 -21 -45 c-11 -25 -21 -55 -21 -68
0 -19 -4 -22 -21 -17 -18 6 -20 4 -13 -17 9 -29 7 -99 -4 -110 -4 -4 -18 -5
-30 -1 -17 4 -21 10 -16 22 4 9 9 45 11 81 l4 65 -21 -25 c-15 -18 -19 -19
-11 -5 5 11 19 28 32 39 20 16 21 24 15 85 -25 254 -21 294 31 352 33 36 35
43 24 62 -7 12 3 5 23 -15 19 -21 44 -38 55 -38z m3223 -151 c15 -20 57 -54
95 -76 298 -176 343 -206 343 -221 0 -4 -7 -15 -14 -25 -14 -18 -15 -18 -42
-1 l-27 18 12 -22 c7 -13 11 -31 9 -40 -3 -14 -8 -13 -30 10 -23 22 -29 24
-39 12 -22 -26 -29 -14 -27 44 3 46 0 56 -12 53 -8 -2 -27 -4 -42 -4 -15 0
-25 -4 -22 -9 3 -4 11 -8 18 -8 22 0 38 -27 31 -50 -5 -17 -10 -19 -21 -9 -7
6 -20 9 -28 6 -8 -3 -17 0 -19 7 -3 7 -15 16 -26 19 -17 4 -21 1 -21 -19 0
-24 0 -24 -36 -9 -46 19 -44 20 -44 -11 0 -19 -8 -28 -37 -41 -34 -14 -36 -16
-19 -28 14 -11 15 -17 6 -34 -6 -12 -8 -26 -5 -31 3 -6 3 -10 -2 -10 -4 -1
-39 -5 -77 -10 -55 -7 -76 -5 -98 6 -26 14 -28 13 -28 -6 0 -16 -7 -20 -32
-20 -18 0 -48 -9 -66 -20 -45 -28 -90 -27 -101 2 l-8 23 -8 -24 c-5 -17 -9
-20 -15 -10 -7 10 -12 10 -23 1 -7 -7 -16 -10 -18 -7 -3 2 -22 0 -43 -6 -30
-8 -41 -7 -55 5 -14 13 -21 13 -65 -1 -45 -15 -50 -15 -61 0 -15 20 -26 22
-19 4 4 -11 -20 -13 -123 -10 -153 5 -333 19 -365 28 -13 4 -33 17 -45 28
l-23 20 0 -21 c0 -18 -5 -21 -22 -18 -13 3 -62 10 -111 17 -48 6 -90 15 -93
21 -3 5 -20 6 -36 3 -42 -10 -287 32 -365 61 -38 15 -41 18 -33 40 10 26 -1
39 -26 30 -11 -4 -10 0 3 21 16 25 17 27 1 21 -13 -5 -18 0 -23 23 -4 17 -5
32 -2 35 9 9 64 -22 60 -33 -3 -9 5 -13 24 -13 31 0 65 -24 82 -57 16 -31 26
-29 74 12 22 19 47 35 54 35 7 0 22 9 34 21 19 19 24 20 97 8 42 -6 85 -19 95
-27 11 -10 17 -11 17 -4 0 14 118 16 139 3 10 -6 26 -2 50 13 26 17 58 25 119
29 80 6 82 6 83 -16 1 -21 1 -21 12 4 11 23 15 24 52 17 125 -23 211 -50 287
-89 30 -15 43 -18 48 -9 6 9 13 9 29 0 12 -6 30 -10 39 -8 9 2 -17 14 -58 28
-89 30 -127 54 -158 100 -22 32 -22 35 -5 38 10 2 32 9 48 17 53 24 247 55
342 55 l93 0 14 33 c17 41 67 67 128 67 23 0 49 4 57 9 9 6 34 2 69 -10 30
-11 57 -17 60 -15 2 3 -5 17 -15 33 -46 67 -39 68 9 2z m-4102 -228 c0 -31 13
-46 45 -53 18 -4 18 -6 -6 -16 -32 -13 -295 -68 -364 -77 -77 -9 -86 6 -25 45
61 39 113 59 158 60 18 0 49 7 69 15 44 19 40 20 47 -10 11 -44 60 -21 56 27
-3 32 -1 38 10 38 6 0 10 -13 10 -29z m1955 -76 c49 -25 103 -56 119 -69 l28
-23 -73 4 c-73 4 -231 26 -299 41 -32 7 -33 9 -15 19 11 5 33 13 49 17 26 6
28 5 16 -9 -15 -18 -8 -30 14 -22 11 4 12 14 6 41 -9 41 -5 43 30 16 34 -27
44 -25 24 5 -24 37 -5 33 101 -20z m-1997 -116 c-10 -5 -18 -17 -18 -25 0 -11
-6 -13 -21 -9 -19 6 -20 4 -14 -27 9 -42 14 -50 26 -43 5 4 9 4 9 1 0 -3 -17
-13 -37 -23 -21 -9 -42 -19 -47 -21 -4 -2 -6 4 -3 14 23 75 23 74 -27 74 -45
0 -47 -1 -69 -46 -21 -45 -21 -46 -3 -60 15 -10 16 -14 5 -18 -8 -2 -21 -6
-29 -9 -9 -3 -25 -23 -35 -46 -22 -45 -35 -52 -35 -18 0 17 -6 22 -24 22 -20
0 -22 -3 -15 -21 6 -16 2 -27 -15 -43 -27 -26 -39 -27 -32 -3 5 14 -1 23 -21
33 -16 7 -31 15 -34 17 -12 6 -31 -89 -27 -133 6 -50 3 -52 -49 -30 -77 32
-113 8 -113 -80 -1 -45 -2 -48 -15 -31 -7 10 -17 44 -21 74 -7 54 -8 56 -22
34 -9 -14 -25 -22 -41 -22 -21 0 -31 -8 -44 -35 -9 -19 -12 -35 -7 -35 10 0
36 40 33 51 -1 3 9 4 22 1 14 -2 25 -8 25 -12 0 -22 -47 -61 -97 -80 -55 -20
-58 -21 -95 -4 -21 9 -41 14 -44 11 -4 -3 5 -12 20 -18 24 -11 26 -17 26 -74
0 -56 -2 -63 -22 -68 -12 -4 -19 -9 -16 -13 4 -3 21 -1 39 5 29 10 36 8 79
-24 51 -38 75 -81 39 -72 -28 8 -67 -31 -74 -74 -6 -31 -4 -36 20 -47 44 -20
19 -33 -56 -30 -38 2 -69 7 -69 11 0 5 12 28 26 53 l26 44 -21 26 c-12 15 -21
33 -21 40 0 16 -2 16 -24 8 -11 -4 -16 -19 -16 -42 l0 -36 -57 55 c-32 30 -67
62 -77 70 -17 13 -18 12 -13 -6 5 -15 -3 -27 -33 -48 -42 -29 -51 -60 -25 -75
13 -7 14 -14 5 -36 -13 -36 -13 -38 8 -35 9 1 25 -2 36 -6 13 -6 21 -3 28 8
18 33 31 19 25 -27 -5 -37 -3 -46 17 -65 20 -19 28 -21 45 -11 12 6 19 15 16
21 -4 5 -3 8 2 7 4 -2 23 3 41 11 28 12 37 12 59 0 18 -10 27 -11 30 -3 4 12
53 7 53 -6 0 -4 -7 -13 -15 -20 -8 -7 -15 -24 -15 -39 0 -22 6 -17 39 35 21
34 43 64 49 68 6 4 7 20 2 43 -11 48 -7 51 19 15 18 -25 89 -70 95 -60 6 12
28 75 29 85 1 18 26 3 42 -26 8 -14 14 -20 15 -13 0 8 -13 27 -30 44 -16 16
-30 36 -30 43 0 7 21 32 48 55 26 23 46 47 44 52 -1 5 2 7 8 3 6 -4 17 -1 25
5 13 11 15 5 15 -39 0 -28 2 -51 4 -51 2 0 12 3 21 6 13 5 15 16 9 67 l-7 61
34 -26 33 -27 23 37 c12 20 23 47 23 60 0 16 6 22 23 22 16 0 18 3 9 9 -12 7
-11 14 2 40 17 32 30 39 42 20 9 -15 24 9 24 40 0 23 1 24 20 6 11 -10 20 -29
20 -42 0 -17 6 -23 23 -23 17 0 44 23 96 82 67 76 72 85 69 123 l-3 40 39 -1
c23 -1 46 5 54 13 8 7 19 12 26 10 10 -3 87 111 87 130 0 5 -10 10 -22 13 -28
7 -34 23 -15 43 8 8 12 18 8 21 -3 4 2 4 12 0 13 -5 17 -4 12 4 -3 6 -2 13 3
16 5 3 11 -3 14 -14 4 -14 0 -20 -12 -20 -18 0 -41 -18 -41 -32 0 -4 8 -8 19
-8 39 0 44 -25 13 -72 -16 -23 -37 -56 -46 -71 -10 -17 -23 -26 -31 -23 -16 6
-85 -67 -85 -89 0 -8 -6 -15 -14 -15 -7 0 -78 -73 -157 -162 -217 -246 -414
-441 -482 -478 -47 -26 -55 -35 -46 -46 10 -13 14 -13 28 0 9 8 33 23 54 35
30 17 37 18 37 6 0 -8 5 -15 10 -15 6 0 10 6 10 13 0 14 162 195 248 277 26
25 60 62 76 83 35 48 69 65 91 47 9 -8 14 -21 12 -30 -2 -9 4 -22 13 -28 15
-9 19 -7 24 11 10 39 7 67 -7 61 -8 -3 -23 3 -34 13 -21 18 -19 20 156 187
118 114 138 132 62 54 -96 -98 -111 -117 -92 -120 20 -3 20 -5 -15 -63 -32
-53 -36 -65 -32 -113 5 -53 4 -55 -28 -68 -18 -7 -34 -19 -37 -26 -3 -7 -6 -4
-6 8 -2 48 -41 32 -41 -18 0 -16 -7 -45 -15 -65 -16 -37 -12 -50 24 -80 21
-18 28 -16 35 10 3 12 13 31 21 41 13 18 16 18 39 2 33 -21 53 -22 36 -1 -10
13 -10 19 5 35 22 25 35 25 35 3 1 -15 4 -14 21 7 l21 25 -28 6 c-28 5 -28 5
-7 13 13 4 30 14 38 22 14 14 13 19 -5 44 -25 35 -25 44 0 37 16 -4 20 0 20
21 0 15 4 32 8 38 7 11 82 47 82 39 0 -2 -30 -79 -66 -172 -36 -92 -76 -199
-89 -238 -41 -122 -195 -439 -202 -417 -3 6 -9 10 -14 6 -14 -8 -11 -24 6 -24
11 0 7 -15 -15 -66 -34 -74 -37 -93 -15 -74 28 23 291 576 345 725 18 50 55
140 83 200 33 73 50 124 50 150 0 22 2 34 4 28 8 -23 21 -14 29 20 8 37 81
207 95 222 6 6 3 -8 -7 -30 -23 -54 -80 -223 -89 -259 -3 -16 -15 -41 -26 -54
-25 -32 -24 -42 4 -43 21 -1 21 -1 -3 -11 -21 -9 -42 -52 -129 -262 -244 -586
-399 -923 -614 -1331 -50 -93 -103 -195 -118 -225 -24 -48 -28 -51 -28 -27 -1
15 -5 27 -9 27 -12 0 -42 -68 -37 -83 5 -12 -95 -76 -142 -91 -26 -8 -28 0
-16 68 l6 38 54 -4 c60 -5 58 5 -3 27 -22 8 -38 18 -37 24 2 6 8 40 15 76 8
43 17 65 27 65 10 0 11 3 3 13 -7 8 -9 29 -5 50 3 21 1 37 -4 37 -5 0 -18 -46
-29 -102 -10 -56 -25 -108 -33 -115 -8 -8 -11 -23 -7 -38 5 -20 3 -23 -10 -18
-14 5 -14 3 -3 -15 25 -41 -29 -149 -104 -206 -84 -64 -384 -26 -427 55 -9 16
34 266 86 497 3 15 1 21 -6 17 -5 -3 -10 -18 -10 -32 0 -18 -4 -24 -15 -20
-11 5 -13 0 -9 -21 3 -16 -1 -53 -10 -83 -8 -29 -24 -108 -36 -174 -27 -158
-28 -160 -89 -175 -47 -11 -54 -10 -103 14 -28 14 -60 26 -71 26 -15 0 -17 5
-12 29 4 21 2 30 -11 35 -9 4 -19 4 -22 1 -3 -3 0 -5 6 -5 14 0 15 -10 3 -28
-7 -11 -18 -9 -58 12 -65 32 -106 68 -143 122 -28 39 -30 48 -24 101 5 43 18
77 50 133 24 41 44 81 44 89 0 8 -29 -16 -64 -52 -35 -37 -70 -67 -78 -67 -22
0 -66 38 -84 71 -8 17 -26 34 -39 39 -19 7 -25 17 -25 40 0 27 -3 30 -20 25
-13 -4 -31 0 -47 10 -21 14 -27 15 -34 4 -5 -8 -9 -20 -9 -26 0 -31 -65 -2
-85 37 -39 76 18 227 142 377 82 99 184 193 210 193 11 0 14 3 7 8 -10 6 105
110 157 142 7 5 10 12 6 16 -15 15 -333 -249 -403 -335 -46 -58 -49 -59 -68
-43 -18 16 -18 16 -12 -6 5 -14 3 -29 -4 -37 -23 -28 -32 -15 -29 43 3 88 2
97 -16 82 -13 -10 -15 -9 -15 8 0 28 -15 35 -31 16 -7 -8 -25 -22 -41 -30 -16
-8 -28 -23 -28 -34 0 -11 -4 -20 -9 -20 -5 0 -7 8 -4 18 3 12 -4 24 -20 35
-23 15 -26 15 -38 1 -11 -13 -15 -10 -26 28 -7 24 -13 44 -13 46 0 2 14 -7 32
-19 27 -20 31 -20 25 -5 -4 10 -7 22 -7 27 0 5 -7 9 -15 9 -15 0 -35 37 -35
66 0 8 10 14 25 14 28 0 33 21 9 41 -13 11 -13 14 0 21 8 4 22 30 31 57 13 40
35 68 118 148 56 54 152 131 212 172 130 88 143 98 91 77 -69 -29 -298 -182
-396 -265 -49 -42 -51 -43 -57 -22 -5 18 -11 21 -30 16 -23 -6 -24 -5 -8 24
14 28 14 30 -4 36 -47 15 -58 166 -19 261 102 254 335 424 718 524 47 13 91
27 98 33 22 17 13 27 -20 21 -65 -11 -420 -108 -438 -119 -6 -4 -22 1 -36 10
-16 10 -33 13 -47 9 l-22 -7 20 23 c49 55 75 65 190 72 199 12 423 36 445 48
20 11 21 10 10 -10 -6 -12 -9 -24 -7 -27 3 -2 58 6 122 18 101 20 117 21 125
9 8 -13 10 -12 10 3 0 9 1 17 3 17 175 22 243 32 292 40 33 6 97 14 143 17 69
4 86 2 102 -12 18 -16 18 -16 14 2 -5 17 0 18 52 15 32 -1 60 -5 63 -8 2 -2
-11 -20 -29 -39 -32 -33 -34 -34 -53 -17 -19 17 -20 16 -7 -7 11 -22 7 -29
-81 -118 -152 -152 -284 -253 -376 -286 -72 -25 -74 -27 -33 -22 25 2 53 7 63
10 14 6 13 -2 -8 -55 -47 -119 -130 -295 -162 -343 -18 -27 -33 -50 -33 -52 0
-2 10 -5 22 -7 17 -2 36 -28 76 -102 46 -85 52 -102 43 -122 -7 -17 -16 -22
-27 -17 -11 4 -15 2 -11 -4 4 -5 0 -19 -8 -29 -20 -26 -18 -34 5 -34 13 0 20
7 20 19 0 18 43 61 61 61 5 0 4 -12 -1 -27 -10 -27 -9 -27 5 -8 9 11 22 28 30
38 19 22 21 101 3 95 -7 -3 -14 -13 -16 -24 -7 -44 -12 -48 -30 -23 -9 13 -40
66 -69 117 l-51 94 43 85 c24 47 63 133 86 192 56 139 71 162 149 220 36 27
111 91 168 143 228 207 277 247 348 282 82 40 88 42 80 21 -8 -22 7 -18 22 5
7 11 22 20 35 20 12 0 31 6 42 14 20 14 38 19 280 81 139 36 160 40 133 24z
m1514 -146 c62 -62 116 -113 121 -113 4 0 24 -7 45 -15 20 -9 53 -15 74 -14
20 2 43 -3 52 -10 14 -12 13 -15 -6 -31 -18 -14 -20 -20 -10 -32 7 -9 22 -13
36 -11 13 3 34 0 46 -7 l22 -12 -23 -24 -22 -24 32 -11 c28 -10 32 -15 26 -36
-5 -22 -4 -23 15 -13 12 6 26 22 32 36 6 13 22 27 35 30 14 4 23 14 23 25 0
29 27 22 33 -8 5 -22 0 -33 -20 -51 -24 -22 -25 -24 -7 -37 11 -8 27 -17 37
-20 20 -7 22 -21 5 -28 -9 -3 -2 -16 19 -38 30 -31 33 -32 60 -19 l28 14 -32
4 c-30 3 -48 22 -22 22 6 0 8 9 4 21 -8 24 -2 22 52 -17 23 -17 30 -29 26 -44
-11 -42 68 -94 83 -55 5 12 10 13 20 4 11 -9 18 -8 29 1 24 20 44 -3 27 -30
-17 -28 -16 -30 17 -30 21 0 37 -10 60 -37 17 -21 41 -48 53 -61 13 -13 25
-29 28 -37 3 -9 12 -10 28 -4 29 11 38 36 23 61 -7 11 -11 22 -8 24 8 8 67
-18 61 -27 -3 -5 -10 -6 -16 -3 -7 5 -9 0 -5 -15 4 -15 -1 -26 -14 -34 -23
-14 -24 -30 -4 -47 9 -7 13 -15 10 -18 -3 -3 -16 5 -30 18 l-25 23 0 -36 c0
-27 7 -41 26 -56 33 -26 62 -27 60 -4 0 11 13 25 34 35 26 14 34 24 32 40 -1
13 2 29 7 37 8 12 12 12 25 2 14 -12 16 -9 16 28 0 35 3 41 21 41 17 0 20 -4
15 -22 -3 -13 -8 -41 -11 -63 l-5 -40 14 40 14 40 17 -39 c17 -41 18 -38 -25
-66 -13 -9 -11 -13 9 -30 13 -11 36 -20 52 -20 l29 0 -16 38 c-17 40 -44 112
-44 118 0 2 7 4 15 4 21 0 19 16 -4 32 -10 7 -21 23 -25 35 -6 19 -11 21 -26
13 -28 -15 -31 -13 -24 18 7 24 6 26 -9 13 -11 -8 -17 -28 -17 -52 0 -38 -1
-39 -36 -39 l-36 0 27 35 27 36 -26 -7 c-29 -7 -34 7 -11 26 34 28 -23 42 -59
15 -28 -21 -34 -19 -28 11 5 26 3 26 -30 20 -28 -5 -38 -2 -58 19 -19 20 -20
25 -8 30 28 11 -25 52 -75 59 -25 4 -52 15 -62 26 -9 10 -22 17 -29 14 -6 -2
-18 13 -26 37 -8 23 -19 41 -25 41 -5 0 -16 -21 -24 -46 -8 -25 -18 -46 -22
-46 -4 0 -10 18 -14 40 -4 24 -14 44 -25 50 -24 13 -50 39 -50 51 0 17 50 9
70 -11 42 -42 78 -9 43 38 -11 15 -29 27 -39 27 -15 0 -18 6 -16 30 5 40 21
58 47 52 20 -3 21 -2 11 26 -7 17 -12 23 -14 14 -2 -8 -21 -22 -43 -31 -46
-19 -63 -20 -53 -5 4 6 -1 9 -13 7 -11 -2 -27 3 -35 10 -23 19 -77 -28 -71
-61 3 -16 -1 -26 -11 -30 -21 -8 -32 33 -17 61 6 12 11 25 11 31 0 18 -32 42
-49 36 -15 -6 -15 -5 0 10 14 14 15 23 6 51 l-10 34 -25 -38 c-28 -41 -40 -52
-60 -52 -7 0 -1 10 13 23 26 22 51 108 27 93 -6 -4 -21 -2 -33 4 -17 10 -23 8
-36 -10 -12 -18 -17 -19 -30 -8 -17 14 -47 77 -40 84 9 9 191 -36 222 -55 23
-13 37 -16 49 -9 12 7 43 2 104 -15 214 -62 275 -99 462 -281 74 -73 160 -152
190 -176 30 -24 79 -66 107 -94 48 -46 51 -51 37 -67 -14 -16 -13 -18 13 -23
25 -6 36 -24 101 -160 39 -85 75 -168 78 -185 9 -44 -19 -110 -78 -188 l-49
-65 42 -55 c47 -63 60 -64 29 -3 -18 36 -20 46 -10 71 12 28 13 28 44 13 22
-11 26 -11 14 -1 -9 7 -20 26 -24 41 l-7 28 30 -16 c17 -8 33 -12 37 -9 12 13
6 43 -10 43 -22 0 -11 46 18 77 l21 23 -32 60 c-32 60 -32 62 -12 67 16 4 19
9 12 21 -6 10 -6 23 0 34 6 11 5 26 -3 42 -13 31 -28 34 -28 6 0 -11 5 -20 10
-20 15 0 12 -33 -5 -56 -14 -18 -15 -18 -22 6 -3 13 -33 78 -65 143 -32 65
-58 124 -58 132 0 7 -51 55 -112 106 -178 146 -320 280 -314 295 3 8 0 14 -7
14 -7 0 -24 10 -36 21 -21 20 -22 23 -6 31 9 6 63 9 119 9 76 -1 106 2 115 12
9 12 -10 15 -112 21 -67 3 -140 11 -162 17 -43 11 -217 80 -213 84 3 3 345
-47 443 -64 33 -6 68 -8 77 -5 12 3 18 0 18 -9 0 -11 16 -17 53 -21 73 -9 194
-39 179 -44 -7 -2 -49 1 -94 7 -96 13 -168 14 -168 3 0 -9 100 -23 290 -42
186 -19 257 -41 243 -76 -3 -8 0 -14 6 -14 6 0 11 14 11 30 0 17 2 30 4 30 2
0 39 -9 82 -20 44 -11 82 -20 87 -20 15 0 6 17 -15 28 -22 10 -21 11 11 11 29
1 33 4 28 23 -6 20 -4 20 19 -5 28 -31 28 -31 55 -16 16 8 25 7 39 -6 10 -9
34 -16 56 -15 22 0 95 -1 163 -3 l125 -4 37 -41 c20 -23 39 -53 41 -67 4 -21
1 -25 -18 -25 -19 0 -156 41 -354 107 -57 18 -140 29 -140 17 0 -5 51 -26 114
-48 176 -59 374 -163 465 -242 53 -47 142 -163 199 -259 l41 -70 -14 -88 c-16
-100 -34 -132 -94 -165 -35 -20 -41 -21 -41 -7 0 11 -6 15 -18 11 -13 -4 -38
11 -83 50 -78 67 -147 114 -168 114 -9 0 13 -26 49 -57 36 -32 105 -97 155
-144 89 -87 89 -88 71 -108 -19 -21 -19 -21 12 -21 18 0 32 -5 32 -11 0 -5 9
-31 21 -56 11 -25 18 -54 16 -64 -3 -11 -1 -19 5 -19 6 0 7 -13 3 -33 -12 -59
-16 -66 -31 -60 -8 3 -30 -7 -50 -22 -33 -25 -36 -26 -40 -8 -3 11 -24 30 -48
42 -37 20 -46 22 -67 11 -42 -22 -59 -42 -59 -71 0 -36 -9 -59 -24 -59 -6 0
-38 27 -71 61 -65 66 -221 203 -298 261 -29 22 -55 34 -64 31 -12 -5 -8 -10
16 -22 17 -9 63 -43 103 -76 192 -160 281 -267 366 -443 39 -81 47 -106 47
-154 -1 -60 -10 -82 -25 -58 -7 11 -12 11 -23 2 -12 -10 -16 -8 -21 13 -5 20
-13 25 -41 27 -19 1 -42 2 -52 2 -10 1 -21 -12 -28 -34 -10 -29 -17 -36 -43
-38 -25 -3 -33 -9 -42 -37 -39 -117 -128 -114 -188 5 -34 68 -114 190 -124
190 -12 0 18 -73 46 -114 14 -21 26 -43 26 -48 0 -5 11 -24 24 -41 65 -88 79
-151 51 -244 -14 -46 -23 -56 -112 -123 -111 -83 -196 -127 -266 -136 -55 -8
-68 0 -103 65 l-25 46 5 -42 c4 -38 0 -48 -35 -92 -26 -32 -45 -48 -55 -44 -8
3 -28 0 -45 -7 -26 -11 -33 -11 -47 3 -15 16 -15 18 3 33 18 14 18 15 2 10
-10 -3 -23 -6 -28 -6 -5 0 -9 -14 -9 -31 l0 -30 -72 7 c-40 4 -101 18 -136 32
-71 28 -74 32 -98 145 -17 83 -18 121 -3 111 7 -4 9 1 7 12 -2 11 -11 18 -20
18 -12 -1 -19 10 -23 40 -7 41 -23 81 -30 74 -4 -3 43 -243 60 -312 7 -26 6
-27 -12 -17 -11 5 -26 24 -33 41 -14 33 -20 36 -37 19 -9 -9 -11 -7 -7 7 4 15
-3 22 -30 32 -20 7 -56 24 -81 38 -35 20 -45 31 -45 51 0 21 -2 23 -15 13 -12
-10 -16 -8 -25 15 -6 15 -8 36 -4 47 5 16 2 19 -14 14 -22 -7 -36 15 -27 45 3
10 -5 39 -18 66 -34 67 -41 103 -22 103 8 0 15 -9 15 -19 0 -10 9 -29 21 -42
l20 -24 -6 25 c-10 41 -105 233 -112 227 -7 -8 14 -63 38 -98 12 -17 15 -30 8
-40 -8 -12 -10 -12 -19 1 -8 12 -10 12 -10 -5 -1 -20 -1 -20 -15 -1 -20 26
-19 37 1 29 21 -8 13 18 -29 102 -16 33 -41 89 -54 125 -13 36 -36 77 -50 92
-14 14 -23 31 -19 36 3 5 -7 26 -22 45 -16 19 -50 87 -76 151 -35 85 -53 116
-66 116 -13 0 -24 22 -44 91 -15 49 -45 125 -66 169 -69 137 -199 438 -260
603 -19 49 -40 91 -48 94 -9 4 -10 8 -3 13 8 4 5 24 -9 64 -13 39 -16 56 -7
53 15 -5 32 -39 45 -92 18 -72 117 -295 260 -585 77 -157 154 -319 170 -360
17 -41 37 -88 46 -105 9 -16 16 -40 16 -52 0 -13 6 -23 14 -23 8 0 17 -12 20
-27 4 -16 18 -48 31 -73 12 -25 45 -97 71 -160 27 -63 50 -108 52 -100 1 9
-11 49 -28 89 l-30 74 21 34 c23 37 19 55 -6 29 -9 -9 -22 -16 -28 -16 -17 0
-71 134 -57 138 7 3 1 16 -14 31 -14 15 -48 83 -75 151 -27 69 -56 139 -65
155 -9 17 -16 35 -16 42 0 6 -8 19 -17 29 -23 23 -56 118 -43 122 6 2 0 12
-14 23 -13 11 -39 57 -59 106 -19 49 -69 164 -111 257 -42 94 -76 170 -76 171
0 0 18 -1 39 -3 32 -3 41 -9 45 -28 4 -13 4 -35 0 -49 -5 -19 -2 -25 10 -25
10 0 28 27 49 73 26 57 32 79 26 105 -4 17 -4 32 0 31 3 0 62 -61 131 -136 69
-74 206 -220 305 -324 l180 -189 13 -65 c6 -35 12 -73 12 -84 0 -17 27 -37 36
-28 2 2 -5 37 -16 78 -11 41 -20 77 -20 82 0 4 16 1 35 -7 51 -22 52 -2 2 28
-46 26 -520 516 -656 677 -44 52 -136 150 -205 219 -69 69 -126 132 -125 140
0 10 3 8 9 -5 4 -11 59 -71 122 -132z m-2052 48 c-125 -41 -163 -50 -275 -59
-82 -7 -133 -8 -139 -2 -7 7 -5 10 5 10 39 1 159 23 270 50 264 63 327 64 139
1z m1790 -197 c-18 -52 -39 -144 -61 -269 -5 -27 -10 -127 -11 -222 -2 -110
-6 -165 -12 -155 -11 18 -35 170 -36 220 0 51 -20 28 -22 -26 l-1 -47 -4 42
c-2 24 2 54 10 68 10 20 11 41 5 88 -15 101 -7 135 49 213 62 86 83 125 84
161 0 26 1 27 9 6 6 -16 3 -39 -10 -79z"/>
<path d="M940 6953 c-108 -8 -314 -34 -355 -44 -34 -9 -45 -16 -42 -28 2 -9
10 -14 18 -12 252 72 553 82 866 30 141 -23 168 -36 139 -68 -10 -11 -24 -17
-32 -14 -8 3 -14 -1 -14 -8 0 -9 12 -14 29 -15 27 -1 30 3 36 36 l6 38 62 -14
c34 -8 85 -22 112 -33 28 -10 73 -25 100 -32 28 -7 110 -37 184 -66 90 -37
144 -53 167 -51 27 2 32 6 23 18 -8 11 -12 12 -16 3 -8 -20 -20 -17 -179 48
-206 84 -379 134 -579 169 -159 27 -392 52 -453 48 -15 -1 -47 -3 -72 -5z"/>
<path d="M3835 2680 c-22 -5 -57 -11 -77 -15 -48 -8 -134 -84 -147 -131 -15
-54 2 -94 53 -129 24 -16 43 -32 41 -35 -4 -7 96 -3 155 5 62 9 144 50 191 95
32 30 39 44 39 74 0 50 -45 95 -123 124 -62 24 -70 24 -132 12z"/>
<path d="M3608 2138 c-93 -40 -97 -43 -113 -86 -24 -61 -16 -131 19 -176 33
-43 57 -58 116 -67 37 -5 54 -2 95 18 80 41 124 74 146 109 25 40 57 53 75 30
10 -15 15 -15 33 -4 30 18 26 24 -23 37 -41 10 -44 13 -50 53 -5 31 -18 53
-50 85 -41 40 -47 43 -97 43 -41 0 -78 -11 -151 -42z"/>
<path d="M4685 1890 c-60 -38 -136 -87 -167 -109 -48 -34 -65 -40 -117 -43
-34 -2 -61 -4 -61 -6 0 -2 5 -13 11 -24 11 -20 12 -21 25 -4 7 10 22 16 36 14
23 -3 27 -17 13 -50 -14 -35 10 -17 27 20 14 29 39 50 113 97 53 33 116 75
140 93 49 36 55 38 55 18 0 -8 9 -24 19 -37 19 -23 20 -23 15 -2 -4 15 -1 23
13 26 17 4 17 5 -1 6 -16 1 -18 7 -13 36 3 19 5 35 4 35 -1 -1 -51 -32 -112
-70z"/>
<path d="M3735 1648 c-61 -43 -135 -123 -147 -158 -27 -84 -6 -223 36 -234 71
-19 197 12 248 61 32 31 78 117 78 147 0 75 -51 150 -125 185 -54 25 -53 25
-90 -1z"/>
<path d="M5261 1454 c-12 -15 -21 -31 -21 -35 0 -5 -43 -100 -96 -211 -53
-112 -116 -252 -140 -312 -24 -60 -53 -124 -64 -143 -11 -19 -20 -43 -20 -53
0 -10 -6 -20 -12 -23 -10 -4 -10 -7 -1 -18 15 -15 14 -16 35 41 28 79 172 399
266 593 86 177 100 221 53 161z"/>
<path d="M4027 1230 c-90 -27 -159 -268 -101 -347 16 -21 31 -29 61 -31 37 -3
43 1 105 66 93 99 109 172 58 273 -24 47 -60 58 -123 39z"/>
<path d="M8753 2640 c-48 -53 -63 -86 -63 -141 0 -38 13 -52 23 -26 4 8 6 7 6
-4 1 -23 38 -53 107 -87 107 -54 250 -48 312 12 25 24 38 81 28 120 -10 41
-60 90 -118 115 -29 13 -61 27 -70 32 -10 5 -51 9 -91 9 -40 0 -77 4 -82 8 -6
5 -28 -11 -52 -38z"/>
<path d="M7269 2498 c-1 -18 -1 -36 0 -40 0 -3 -15 -18 -33 -32 -31 -23 -33
-29 -27 -58 12 -50 29 -77 62 -97 18 -11 26 -22 20 -25 -24 -15 -9 -26 36 -26
44 0 45 -1 29 -19 -13 -14 -15 -28 -10 -60 6 -39 24 -58 24 -25 0 8 25 40 55
70 53 53 54 56 41 82 -8 15 -23 36 -35 46 -13 12 -19 26 -15 38 3 12 0 18 -10
18 -9 0 -18 11 -22 25 -3 14 -12 25 -20 25 -16 0 -47 67 -37 83 3 5 1 7 -4 4
-6 -4 -16 0 -23 8 -20 24 -30 18 -31 -17z"/>
<path d="M7435 2175 c-39 -38 -29 -95 17 -95 21 0 23 -13 5 -28 -10 -9 -15
-86 -8 -131 2 -10 32 37 51 77 14 31 25 43 37 40 21 -4 29 -43 13 -63 -11 -14
-5 -55 8 -55 9 0 52 66 52 80 0 5 -14 26 -32 46 -25 28 -29 39 -21 52 8 13 5
21 -13 35 -30 23 -48 13 -40 -22 6 -25 6 -25 -9 -7 -8 11 -15 37 -15 58 0 44
-11 48 -45 13z"/>
<path d="M8946 2157 c-30 -9 -47 -23 -67 -57 -32 -53 -34 -60 -14 -60 12 0 15
-7 10 -33 -6 -29 -1 -39 54 -98 95 -104 226 -161 291 -127 14 8 40 36 58 63
l33 49 -22 17 -22 17 21 6 c27 9 28 26 2 75 -54 107 -232 183 -344 148z"/>
<path d="M7870 1969 c0 -18 30 -129 40 -147 5 -10 19 -68 31 -130 22 -110 24
-115 70 -163 53 -56 55 -75 7 -113 l-30 -23 22 -16 c13 -9 27 -14 31 -12 12 8
3 -45 -10 -58 -18 -18 -13 -23 29 -36 34 -10 40 -16 40 -39 0 -16 5 -33 12
-40 13 -13 19 -54 7 -46 -8 4 -24 -14 -18 -21 2 -2 25 -6 51 -10 40 -6 47 -5
52 12 12 39 106 61 106 25 0 -25 -11 -34 -26 -21 -8 7 -14 7 -19 -1 -9 -15 23
-50 47 -50 20 0 25 -16 6 -23 -10 -3 -9 -9 4 -22 38 -41 59 16 24 67 -10 14
-16 44 -16 80 0 47 -3 58 -16 58 -10 0 -14 -5 -10 -15 3 -8 9 -21 12 -29 4
-10 -6 -15 -38 -17 -36 -3 -44 -1 -44 13 0 9 3 15 7 12 6 -3 19 19 19 32 0 2
-25 4 -56 4 -49 0 -59 3 -82 30 -26 29 -51 42 -36 18 4 -7 3 -8 -5 -4 -6 4 -9
11 -6 16 3 5 1 11 -5 15 -5 3 -10 19 -10 36 0 22 5 29 20 29 11 0 28 -8 38
-18 10 -10 24 -16 30 -14 15 5 15 -13 2 -39 -9 -16 -7 -19 9 -19 11 0 22 -6
25 -12 6 -17 56 40 56 64 0 21 31 88 40 88 4 0 15 -9 25 -20 17 -19 17 -23
-10 -70 -16 -27 -20 -70 -7 -70 17 0 54 49 47 61 -5 7 -4 10 3 5 15 -9 23 8
27 62 3 40 -1 52 -28 82 -17 19 -39 38 -49 42 -23 9 -23 37 -1 83 19 39 28 43
42 18 8 -16 10 -14 16 10 4 15 5 34 1 42 -8 23 -52 18 -82 -10 -29 -27 -53
-32 -58 -12 -22 82 -23 98 -7 106 25 15 4 26 -24 13 -52 -24 -58 -18 -52 47 4
45 2 61 -9 65 -19 7 -28 -12 -14 -29 8 -9 8 -15 2 -15 -6 0 -17 -2 -24 -5 -12
-5 -13 4 -7 47 14 96 13 97 -27 56 -34 -36 -36 -37 -67 -25 -18 8 -37 23 -43
35 -6 12 -13 19 -17 16 -3 -3 -15 -1 -26 6 -16 8 -21 8 -21 -1z"/>
<path d="M7840 1822 c0 -6 9 -14 20 -17 11 -3 22 -16 25 -28 16 -73 24 -120
30 -182 9 -101 31 -242 60 -385 14 -69 28 -157 31 -195 6 -63 4 -72 -12 -80
-17 -9 -16 -13 20 -50 l39 -40 -7 30 c-4 17 -11 71 -16 120 -5 50 -14 107 -20
128 -6 20 -8 42 -5 47 3 6 1 10 -4 10 -6 0 -11 19 -11 43 0 23 -6 67 -14 97
-23 92 -29 159 -16 175 10 12 10 15 -2 15 -10 0 -13 9 -10 33 2 19 -6 79 -17
135 -12 55 -21 110 -21 121 0 12 -6 19 -17 19 -10 0 -26 3 -35 7 -11 4 -18 3
-18 -3z"/>
<path d="M7486 1754 c-10 -27 -7 -122 6 -149 13 -29 21 -31 38 -10 16 19 30
19 30 0 0 -11 5 -12 24 -5 30 11 36 5 36 -37 l0 -34 -30 16 c-16 9 -30 14 -30
12 0 -8 52 -133 58 -139 4 -4 15 6 24 22 l17 30 -30 8 -30 7 25 24 c21 20 28
22 41 11 17 -14 19 -7 5 20 -8 15 -6 21 9 30 11 5 22 10 24 10 11 0 17 -78 8
-101 -8 -24 -6 -28 25 -43 49 -23 57 -20 39 14 -14 28 -14 31 5 50 26 26 25
50 -6 111 -23 46 -27 49 -38 34 -12 -17 -13 -16 -19 4 -5 21 -6 21 -40 5 -24
-11 -46 -15 -71 -10 -38 7 -49 21 -60 75 -10 55 -46 82 -60 45z"/>
<path d="M8955 1656 c-83 -36 -139 -148 -116 -235 13 -49 53 -111 103 -157 26
-25 48 -35 104 -44 64 -11 73 -11 98 5 56 37 89 151 66 234 -13 51 -90 138
-159 183 -51 32 -54 32 -96 14z"/>
<path d="M8687 1234 c-15 -30 -20 -34 -32 -24 -17 14 -20 3 -5 -20 7 -11 1
-23 -21 -46 -30 -31 -30 -31 -19 -97 17 -110 34 -138 122 -209 l38 -30 44 17
c42 16 45 19 60 81 22 85 20 112 -9 191 -37 97 -97 173 -138 173 -17 0 -28
-10 -40 -36z"/>
<path d="M8280 995 c0 -8 -8 -30 -17 -49 -15 -32 -18 -34 -29 -18 -12 16 -13
16 -19 0 -4 -10 -11 -18 -17 -18 -5 0 -6 5 -3 10 3 6 1 10 -4 10 -6 0 -11 -7
-11 -16 0 -13 -7 -15 -35 -10 -38 7 -43 0 -20 -30 13 -17 14 -17 15 -1 0 13 9
17 44 17 39 0 44 -3 49 -27 4 -16 15 -42 25 -58 17 -27 24 -30 58 -27 32 3 43
10 57 34 13 22 14 34 7 43 -6 7 -14 32 -18 56 -7 43 -8 44 -45 41 -22 -2 -37
1 -37 7 0 6 9 11 20 11 23 0 26 10 8 28 -16 16 -28 15 -28 -3z"/>
<path d="M6387 1148 c2 -5 22 -8 44 -8 34 0 39 -3 39 -22 0 -13 -7 -41 -15
-63 -8 -22 -14 -62 -13 -90 1 -39 2 -42 5 -15 7 59 23 59 24 -1 1 -77 -1 -131
-7 -152 -5 -15 -1 -17 33 -11 36 5 41 3 66 -29 15 -20 27 -44 28 -54 0 -16 1
-16 9 2 5 11 9 30 9 43 1 17 -5 22 -24 22 -28 0 -28 -4 -25 110 1 65 -1 82
-10 74 -7 -8 -11 -36 -8 -78 2 -48 0 -66 -9 -66 -9 0 -13 16 -13 48 l-1 47
-13 -30 c-13 -29 -13 -29 -21 39 -4 38 -5 108 -3 155 l5 87 -52 0 c-29 -1 -51
-4 -48 -8z"/>
</g>
</svg>
